<svg version="1.2" xmlns="http://www.w3.org/2000/svg" viewBox="0 0 509 437" width="509" height="437">
	<style>
		.s0 { fill: #87d5b5 } 
		.s1 { fill: #86d6b5 } 
		.s2 { fill: #20859f } 
		.s3 { fill: #1c84a0 } 
		.s4 { fill: #26849d } 
		.s5 { fill: #88d5b6 } 
		.s6 { fill: #48a2a6 } 
		.s7 { fill: #288aa1 } 
		.s8 { fill: #57acaa } 
		.s9 { fill: #47a0a6 } 
		.s10 { fill: #419da5 } 
		.s11 { fill: #50a8a8 } 
		.s12 { fill: #50a7a8 } 
		.s13 { fill: #3393a3 } 
		.s14 { fill: #3897a4 } 
		.s15 { fill: #288ca2 } 
		.s16 { fill: #2a899e } 
		.s17 { fill: #3e9aa4 } 
		.s18 { fill: #5cb1ab } 
		.s19 { fill: #2d8fa2 } 
		.s20 { fill: #63b6ac } 
		.s21 { fill: #3392a2 } 
		.s22 { fill: #6abcad } 
		.s23 { fill: #74c4b0 } 
		.s24 { fill: #4ba2a6 } 
		.s25 { fill: #5aafaa } 
		.s26 { fill: #84cdb4 } 
		.s27 { fill: #7ecdb2 } 
		.s28 { fill: #83cfb7 } 
		.s29 { fill: #70c1af } 
		.s30 { fill: #60b3ab } 
		.s31 { fill: #76c9b1 } 
		.s32 { fill: #3090a0 } 
		.s33 { fill: #3a8396 } 
		.s34 { fill: #1f819b } 
		.s35 { fill: #2d8ca0 } 
	</style>
	<path class="s0" d="m362.65 104.09c0 0-0.33 0.06-0.56-0.17-0.5-0.17-0.77-0.13-1.05-0.08-0.55-0.12-1.11-0.23-2.05-0.85-1.05-0.62-1.7-0.75-2.36-0.88-0.37 0-0.74 0-1.61-0.36-3.98-1.16-7.44-2.34-10.97-2.66-4.86-0.43-7.9-2.94-7.98-7.89-0.04-2.1 0.6-4.21 0.94-6.31 0 0 0.29-0.11 0.85-0.03 2.41-0.55 4.27-1.19 6.12-1.82 16.22-4.06 32.08-2.36 47.42 3.72 33.6 13.31 55.43 45.41 55.64 81.58 0.16 28.62-9.13 54.57-23.02 79.11-15.57 27.51-36.09 51-59.82 72.55-0.76 0.54-0.96 0.84-1.17 1.15-1.17 1.2-2.35 2.39-4.11 3.74-1.02 0.5-1.46 0.85-1.89 1.2 0 0-0.02-0.08-0.35-0.11-1.78-1.67-3.23-3.31-4.57-5.21 0.39-0.73 0.67-1.21 1.24-1.84 4.77-5.41 9.24-10.65 14.01-16.05 4.1-5.38 7.89-10.61 11.98-15.99 4.43-6.73 8.55-13.3 12.98-20.03 3.77-7.4 7.22-14.63 10.96-22.09 1.92-5.07 3.98-9.82 5.1-14.78 1.22-5.39 2.12-10.97 2.13-16.47 0.02-5.03-4.17-7.52-8.35-9.45 1.59-9.96 4.51-19.9 4.53-29.86 0.06-31.29-12.47-55.52-42.58-69.36-0.79-0.52-1.13-0.64-1.46-0.76z"/>
	<path class="s1" d="m260.9 149.66c3.29-3.52 5.51-0.17 7.57 1.49 8.41 6.81 16.62 13.86 24.91 20.81 0.6 0.5 1.25 0.95 2.41 1.83 0.12-1.53 0.23-2.44 0.25-3.35 0.12-10.52-1.37-9.37 9.8-9.41 10.19-0.05 9.24-0.77 9.26 9.02 0 2.83 0.44 5.75-0.09 8.48-1.68 8.77 2.31 14.41 9.22 19.03 4.27 2.86 8.32 6.17 11.98 9.77 1.52 1.49 2.7 4.47 2.29 6.41-0.28 1.35-3.45 2.73-5.46 2.95-4.08 0.46-8.25 0.14-12.86 0.14-0.28 4.4-0.54 8.33-1.29 12.71-9.85-1.54-19.2-3.53-28.56-5.52-0.08-2.82-0.37-5.66-0.19-8.47 0.21-3.38-0.86-4.87-4.49-4.64-4.28 0.28-8.6 0.07-13.77 0.07 0-3.8 0.01-7.21 0-10.62-0.03-9.06 0.72-8.11-8.39-8.63-0.47-1.89-0.49-3.31-0.5-5.17 0.01-3.15 0-5.85 0-9.01 0.01-3.82 0.01-7.18 0.01-11.01-0.7-5.94-1.4-11.41-2.1-16.88z"/>
	<path class="s2" d="m107 222.01c8.34 7.9 16.67 15.81 25.05 23.67 0.42 0.4 1.22 0.41 1.69 1.12 1.67 4.63 3.01 9.04 5.43 12.74 7.62 11.66 15.84 22.92 23.36 34.63 2.01 3.14 2.36 7.34 3.47 11.05-1.23-0.44-2.47-0.88-4.03-1.89-0.95-0.74-1.58-0.91-2.21-1.08 0 0 0.11-0.04-0.01-0.31-0.74-0.4-1.36-0.54-1.98-0.68 0 0 0.12-0.08-0.01-0.33-0.75-0.41-1.36-0.56-1.98-0.71 0 0 0.1-0.05-0.03-0.33-1.77-1.02-3.42-1.77-5.07-2.51 0 0 0.27-0.32 0.12-0.52-1.15-0.59-2.16-0.98-3.16-1.37 0 0 0.33-0.28 0.16-0.53-1.39-0.81-2.61-1.37-3.84-1.93 0 0 0.04-0.03-0.09-0.25-0.45-0.36-0.76-0.49-1.08-0.63 0 0 0.1-0.03 0-0.25-0.45-0.32-0.8-0.41-1.15-0.51 0 0 0.28 0.02 0.15-0.33-1.47-1.15-2.81-1.95-4.15-2.76 0 0 0.14-0.04 0.07-0.29-0.63-0.5-1.2-0.74-1.76-0.98 0 0 0.05-0.03 0-0.34-1.11-1.04-2.18-1.76-3.25-2.48 0 0 0.13-0.04 0.05-0.26-0.42-0.36-0.76-0.49-1.1-0.62 0 0 0.24-0.19 0.12-0.37-0.47-0.31-0.82-0.43-1.16-0.54 0.12-0.14 0.25-0.28 0.19-0.52-0.53-0.2-0.87-0.3-1.22-0.4 0 0 0.17-0.43 0.1-0.56-0.63-0.38-1.19-0.65-1.74-0.91-0.33-0.05-0.6-0.21-0.99-0.95-0.49-0.66-0.78-0.84-1.08-1.03-1.22-1.13-2.44-2.26-3.8-4.01-0.61-0.94-1.09-1.25-1.56-1.56 0 0 0.3-0.06 0.2-0.36-0.44-0.43-0.78-0.57-1.11-0.71 0 0 0.23-0.08 0.13-0.35-0.43-0.42-0.76-0.58-1.09-0.74 0 0 0.18-0.24 0.1-0.4-0.39-0.34-0.71-0.52-1.03-0.71 0 0 0.12-0.04 0.07-0.3-0.67-0.79-1.29-1.32-1.91-1.85 0 0 0.1-0.03 0.07-0.32-0.49-0.63-0.95-0.98-1.41-1.32 0 0 0.02-0.01 0.06-0.31-0.28-0.49-0.6-0.67-0.92-0.86 0 0 0.12-0.06 0.08-0.34-0.77-1.01-1.51-1.73-2.24-2.44 0 0 0.23-0.02 0.17-0.34-0.38-0.49-0.7-0.67-1.02-0.84 0 0 0.13-0.15 0.08-0.35-0.36-0.4-0.66-0.6-0.96-0.81 0 0 0.11-0.02 0.04-0.24-0.34-0.43-0.62-0.64-0.89-0.86 0 0 0.07-0.02 0.06-0.35-1.12-1.71-2.22-3.08-3.33-4.45 0 0 0.19-0.09 0.19-0.37-0.73-1.07-1.45-1.86-2.17-2.65 0 0 0.12-0.06 0.08-0.27-0.3-0.44-0.58-0.67-0.85-0.9 0 0 0.08-0.02 0.08-0.36-0.79-1.37-1.57-2.4-2.34-3.43 0 0 0.1-0.08 0.09-0.29-0.28-0.45-0.54-0.69-0.8-0.93 0 0 0.06-0.01 0.06-0.37-0.61-1.88-1.21-3.4-1.82-4.91-2.4-5.91-4.81-11.82-6.9-17.87 1.5-1.15 2.59-2.28 3.87-3.14 1.55-1.04 3.25-1.85 5.24-2.85 0.57-0.19 0.79-0.3 1.01-0.41 0 0-0.02 0.07-0.03 0.4 0.29 0.53 0.59 0.74 0.9 0.95 0 0-0.16 0.08-0.15 0.34 0.37 0.75 0.73 1.23 1.09 1.71 0 0-0.1 0.06-0.03 0.26 0.36 0.4 0.66 0.6 0.95 0.8 0 0-0.09 0.01 0.03 0.23 0.43 0.38 0.74 0.54 1.06 0.71 0 0-0.12 0.02-0.04 0.23 0.35 0.42 0.64 0.63 0.92 0.85 0 0-0.09 0.01-0.07 0.22 0.33 0.41 0.65 0.62 0.97 0.83z"/>
	<path class="s3" d="m112.82 216.07c-0.35-0.06-0.6-0.24-0.81-1.12-0.5-0.95-0.93-1.35-1.36-1.74 0 0 0.15-0.05 0.1-0.26-0.34-0.43-0.64-0.64-0.94-0.85 0 0 0.1-0.02 0.03-0.23-0.35-0.42-0.62-0.63-0.89-0.85 0 0 0.05-0.01 0.04-0.36-0.71-1.09-1.41-1.84-2.1-2.59 0 0 0.09-0.05 0.08-0.37-0.69-1.1-1.38-1.87-2.07-2.64 0 0 0.09-0.04 0.08-0.37-0.79-1.37-1.57-2.41-2.36-3.45 0 0 0.13-0.07 0.11-0.28-0.27-0.45-0.54-0.69-0.81-0.93 0 0 0.08-0.01 0.05-0.3-0.4-0.75-0.76-1.21-1.13-1.67 0 0 0.09 0 0.08-0.29-0.37-0.75-0.73-1.23-1.1-1.7 0 0 0.09 0 0.09-0.29-0.36-0.76-0.73-1.23-1.1-1.71 0 0 0.09 0 0.12-0.35-0.75-1.74-1.52-3.12-2.3-4.51 0 0 0.1-0.08 0.18-0.44 0.07-1.18 0.28-2.1-0.01-2.82-7.06-17.88-7.79-36.41-5.75-55.22 0.1-0.93 0.71-1.8 1-2.5 3.59 5.82 7.35 11.1 10.25 16.81 4.5 8.85 8.47 17.98 12.54 27.04 1.55 3.46 3.03 6.99 4.04 10.63 2.3 8.21 4.13 16.55 6.52 24.73 0.67 2.3 2.62 4.22 3.99 6.31 0 0-0.08 0.18-0.17 0.46 0.66 1.36 1.42 2.44 2.18 3.53 0 0-0.12 0.21-0.19 0.47 0.58 1.08 1.24 1.91 1.89 2.73 0 0-0.09 0.05-0.06 0.32 0.4 0.75 0.77 1.21 1.14 1.67 0 0-0.09 0-0.09 0.29 0.42 0.73 0.83 1.16 1.24 1.6 0 0-0.14 0.04-0.1 0.25 0.3 0.43 0.57 0.66 0.84 0.9 0 0-0.07 0.02-0.06 0.35 0.67 1.12 1.33 1.9 1.98 2.68 0 0 0.01 0 0.04 0.32 0.42 0.75 0.82 1.17 1.22 1.6 0.34 0.08 0.57 0.28 0.72 1.2 0.72 1.34 1.41 2.09 2.1 2.84 0 0-0.07 0.03-0.03 0.33 0.46 0.69 0.89 1.09 1.31 1.49 0 0-0.14 0.06-0.1 0.27 0.34 0.43 0.63 0.64 0.93 0.86 0 0-0.11 0.03-0.13 0.37-1.07 1.16-2.11 1.98-3.16 2.8 0 0 0.09-0.06 0.04-0.38-1.05-0.75-2.05-1.18-3.05-1.61 0 0 0.1-0.06 0.05-0.38-1.04-0.76-2.03-1.2-3.02-1.65 0 0 0.07-0.05 0.02-0.36-0.79-0.65-1.54-0.98-2.28-1.31 0 0 0.1-0.19 0.04-0.42-0.63-0.46-1.21-0.7-1.79-0.93-0.33 0-0.6-0.13-0.91-0.99-1.18-1.24-2.28-1.9-3.38-2.55 0 0 0.12 0.02 0.06-0.35-0.61-0.61-1.18-0.86-1.74-1.1 0 0 0.06-0.04-0.05-0.25-0.41-0.39-0.71-0.56-1-0.74 0 0 0.08-0.02-0.02-0.23-0.41-0.39-0.71-0.58-1.01-0.76 0 0 0.09-0.01 0-0.22-0.4-0.4-0.7-0.59-1-0.78 0 0 0.09-0.01 0-0.22-0.4-0.4-0.7-0.59-1-0.78 0 0 0.09-0.01 0-0.22-0.39-0.4-0.69-0.59-0.99-0.78 0 0 0.09-0.02-0.01-0.23-0.39-0.4-0.68-0.59-0.97-0.79 0 0 0.08-0.01-0.02-0.22-0.38-0.41-0.67-0.6-0.96-0.8-0.34-0.05-0.61-0.22-0.88-1.08-0.54-0.9-1-1.25-1.46-1.6 0 0 0.19 0.1 0.21-0.3-0.98-1.26-1.96-2.12-2.95-2.98z"/>
	<path class="s4" d="m129.33 213.38c-1.31-1.72-3.26-3.64-3.93-5.94-2.39-8.18-4.22-16.52-6.52-24.73-1.01-3.64-2.49-7.17-4.04-10.63-4.07-9.06-8.04-18.19-12.54-27.04-2.9-5.71-6.66-10.99-10.25-16.81-0.29 0.7-0.9 1.57-1 2.5-2.04 18.81-1.31 37.34 5.75 55.22 0.29 0.72 0.08 1.64 0.01 2.88-8.27-17.92-10.69-37.1-7.28-56.79 1.39-8.05 4.5-15.8 7.14-23.87 0.31-0.2 0.4-0.13 0.37 0.27-0.59 2.28-1.41 4.13-1.65 6.05-0.26 2.12-0.42 4.43 0.18 6.42 0.74 2.44 2.57 4.54 3.46 6.96 1.64 4.45 2.63 9.16 4.48 13.52 1.59 3.74 4.02 7.13 6.04 10.69 1.3 2.28 2.54 4.59 3.8 6.89q0.59-0.27 1.18-0.54c0.82-8.14 1.65-16.29 2.75-24.67 2.76-7.42 5.24-14.58 8-21.96 3.76-5.73 7.24-11.26 11.02-16.94 5.1-4.71 9.91-9.27 15.06-13.87 2.45-1.03 4.54-2.01 6.94-2.69 0.29 7.93 0.29 15.56 0.29 24 6.76-2.06 12.08-3.68 17.81-5.3 1.46 0 2.52 0.01 3.58 0.22 0 0.22 0 0.65 0 0.65-17.54 3.22-32.66 10.98-43.94 24.96-18.96 23.51-20.52 49.86-11.56 77.63 1.37 4.26 3.18 8.37 4.85 12.92z"/>
	<path class="s5" d="m427.79 101.19c-4.63-3.76-9.05-7.83-13.94-11.21-22.9-15.81-48.01-20.28-75.64-14.37-3.55-6.2-7.76-11.63-7.19-18.78 17.45-2.68 34.43-0.64 50.74 5.81 18.62 7.37 34 19.15 45.64 35.59 0.37 0.53 0.56 1.19 0.74 2.26-0.09 0.46-0.35 0.7-0.35 0.7z"/>
	<path class="s6" d="m225.03 277.05c-0.16 1.02-0.77 2.72-0.42 2.94 2.15 1.41 4.52 2.48 7.25 4.08 0.74 0.52 1.06 0.63 1.38 0.74 0 0-0.06-0.09-0.08 0.27 5.16 8.95 10.22 17.62 15.6 26.09 2.41 3.8 5.45 7.18 8.21 10.75-5 0.31-10 0.62-15.34 0.57-6.99-10.13-13.45-20-20.32-29.6-7.89-11.02-16.19-21.75-24.19-32.7-2.88-3.94-5.42-8.12-8.15-12.59-0.07-0.67-0.1-0.94-0.13-1.21 1.85-0.39 3.69-0.79 6.17-0.92 3.08 1.35 6.36 1.78 7.83 3.64 5.71 7.23 10.74 14.99 16.25 22.38 1.6 2.14 3.94 3.73 5.94 5.56z"/>
	<path class="s7" d="m166.24 305.47c-1.35-3.96-1.7-8.16-3.71-11.3-7.52-11.71-15.74-22.97-23.36-34.63-2.42-3.7-3.76-8.11-5.3-12.4 6.78 2.94 13.27 6.09 19.6 9.6 0.25 1.96 0.24 3.84 1.12 5.11 9.98 14.52 20.4 28.74 30.01 43.5 2.91 4.46 5.18 8.33 11.02 8.5 0.81 0.03 1.58 1.3 2.37 2-10.51-3.37-21.01-6.75-31.75-10.38z"/>
	<path class="s8" d="m253.82 131.05c-0.57-0.44-1.13-0.88-1.87-1.83-0.47-0.75-0.76-0.97-1.05-1.19 0 0 0.08-0.01-0.03-0.21-0.4-0.4-0.68-0.59-0.97-0.78 0 0 0.08-0.02-0.03-0.22-0.4-0.4-0.68-0.59-0.96-0.78 0 0 0.07-0.02-0.04-0.22-0.4-0.4-0.68-0.59-0.96-0.78 0 0 0.07-0.02-0.04-0.22-0.4-0.4-0.68-0.59-0.97-0.78 0 0 0.08-0.02-0.03-0.22-0.4-0.4-0.68-0.59-0.97-0.78 0 0 0.08-0.01 0.08-0.42-0.07-1.91-0.08-3.4-0.21-4.89-0.91-10.35-1.98-20.69-2.61-31.06-0.1-1.5 1.89-3.13 3.27-4.66 1.72 0.38 3.09 0.71 4.45 1.05 3.03 2.96 6.05 5.93 9.13 9.65-0.3 2.86-1.06 4.98-0.94 7.05 0.54 8.99 1.1 18 2.18 26.94 0.31 2.52 2.44 4.83 3.73 7.24-2.18-0.03-4.37-0.05-6.94-0.64-1.05-0.77-1.72-0.98-2.39-1.19 0 0-0.36 0.01-0.65-0.31-0.59-0.45-0.88-0.6-1.18-0.75z"/>
	<path class="s9" d="m228.86 109.66c-0.17-0.07-0.33-0.14-0.84-0.67-0.69-0.59-1.05-0.73-1.41-0.86-5.4-2.38-10.79-4.77-16.44-7.81-0.56-11.2-0.87-21.75-0.76-32.3 1.8 0 3.19 0.01 4.92 0.16 4.79 1.68 9.25 3.22 13.69 5.19-0.31 4.04-0.99 7.65-0.84 11.23 0.35 8.36 1.09 16.71 1.68 25.06z"/>
	<path class="s10" d="m189 248c2.7 4.07 5.24 8.25 8.12 12.19 8 10.95 16.3 21.68 24.19 32.7 6.87 9.6 13.33 19.47 19.87 29.48-3.52-0.06-6.94-0.37-10.86-1.22-2.36-4.17-3.89-8.05-6.16-11.41-12.79-18.94-25.81-37.73-38.59-56.68-0.92-1.37-0.56-3.6-0.8-5.43 0 0 0.11 0.04 0.51 0.17 1.5 0.15 2.61 0.17 3.72 0.2z"/>
	<path class="s11" d="m257.38 321.96c-3.17-3.61-6.21-6.99-8.62-10.79-5.38-8.47-10.44-17.14-15.55-26.11 7.36 1.38 14.66 3.15 22.37 5.36 2.73 4.94 4.82 9.58 7.4 13.92 2.75 4.64 5.97 9.02 8.98 13.51-4.73 1.38-9.45 2.76-14.58 4.11z"/>
	<path class="s12" d="m229.06 109.89c-0.79-8.58-1.53-16.93-1.88-25.29-0.15-3.58 0.53-7.19 1.23-11.21 6.15 2.58 11.91 5.58 17.67 8.58-1.03 1.57-3.02 3.2-2.92 4.7 0.63 10.37 1.7 20.71 2.61 31.06 0.13 1.49 0.14 2.98 0.18 4.92-5.57-3.88-11.13-8.21-16.89-12.76z"/>
	<path class="s13" d="m211.96 318.6c-3.06-0.52-6.11-1.04-9.72-1.85-0.81-0.52-1.12-0.62-1.47-0.59 0 0 0.14-0.03 0-0.3-2.95-4.89-5.53-9.68-8.61-14.13-4.88-7.05-10.14-13.83-15.17-20.78-5.68-7.84-11.29-15.74-16.93-23.62 3.41-1.39 6.82-2.78 10.58-3.83 0.61 1.44 0.57 2.74 1.16 3.63 7.83 11.97 15.8 23.87 23.65 35.84 5.57 8.5 11.01 17.08 16.51 25.63z"/>
	<path class="s14" d="m212.28 318.76c-5.82-8.71-11.26-17.29-16.83-25.79-7.85-11.97-15.82-23.87-23.65-35.84-0.59-0.89-0.55-2.19-0.8-3.68 1.71-1.29 3.42-2.2 5.52-2.74 3.78 6.2 6.8 12.28 10.63 17.8 6.65 9.6 14.03 18.69 20.67 28.29 5.39 7.79 10.14 16.02 15.17 24.06-3.46-0.65-6.92-1.3-10.71-2.1z"/>
	<path class="s15" d="m237.34 227.85c0 0 0.39 0.02 0.75 0.38 1.21 0.5 2.05 0.64 2.96 1.14 4.03 1.45 7.99 2.54 11.96 4.09 0 4.02 0 7.58 0 11.73-5.58-1.23-10.23-2.23-14.86-3.28-7.05-1.62-14.1-3.27-21.52-5.05-1.32-0.36-2.3-0.84-3.22-0.75-4.43 0.46-5.83-1.61-5.5-5.79 0.27-3.42 0.07-6.88 0.51-10.33 6.06 1.64 11.7 3.25 17.32 4.9 3.43 1.01 6.85 2.07 10.6 3.08 0.56-0.05 0.78-0.09 1-0.12z"/>
	<path class="s16" d="m290.92 377.92c-8.55 6.22-17.09 12.45-26 18.94-2.11-13.29 9.29-29.91 21.62-39.54 3.99 4.06 7.59 7.87 11.25 11.63 0.26 0.26 0.96 0.1 1.27 0.43-2.84 3.04-5.49 5.79-8.14 8.54z"/>
	<path class="s17" d="m136 95.01c-3.48 5.53-6.96 11.06-11.07 16.76-2.05-1.14-3.87-2.21-4.86-3.8-3.91-6.28-7.56-12.72-11.31-19.1 4.8-4.6 9.59-9.21 15.03-13.74 1.88 1.77 3.29 3.38 4.32 5.2 2.72 4.85 5.27 9.78 7.89 14.68z"/>
	<path class="s18" d="m265.33 133.94c-1.64-2.41-3.77-4.72-4.08-7.24-1.08-8.94-1.64-17.95-2.18-26.94-0.12-2.07 0.64-4.19 1.04-6.74 1.75 1.27 3.29 1.5 4.78-0.78 0.71-1.07 1.7-1.95 3.19-2.9 1.72 2.48 3.32 4.84 3.82 7.41 1.28 6.71 1.94 13.54 3.2 20.26 0.22 1.19 2.12 2.06 3.24 3.08-3.58 5.2-6.05 11.41-13.01 13.85z"/>
	<path class="s19" d="m159.68 257.26c6.02 7.95 11.63 15.85 17.31 23.69 5.03 6.95 10.29 13.73 15.17 20.78 3.08 4.45 5.66 9.24 8.6 14.21-0.59 0.25-1.32 0.17-2.41 0-1.15-0.79-1.92-2.06-2.73-2.09-5.84-0.17-8.11-4.04-11.02-8.5-9.61-14.76-20.03-28.98-30.01-43.5-0.88-1.27-0.87-3.15-0.96-4.79 0.32-0.05 0.38-0.03 0.48 0.17 0.27 0.44 0.5 0.56 1.08 0.6 0.78-0.17 1.27-0.39 1.77-0.61 0.78-0.01 1.56-0.02 2.72 0.04z"/>
	<path class="s17" d="m208.99 68.03c0.31 10.54 0.62 21.09 0.89 32.12-4.7-0.45-9.35-1.38-14.55-2.83-1.78-1.13-3.02-1.73-4.26-2.33q0.68-0.21 1.35-0.43c-0.81-8.86-1.61-17.72-1.95-26.59 6.49 0.02 12.5 0.04 18.52 0.06z"/>
	<path class="s20" d="m278.61 119.92c-1.39-0.85-3.29-1.72-3.51-2.91-1.26-6.72-1.92-13.55-3.2-20.26-0.5-2.57-2.1-4.93-3.51-7.55 4.43-4.46 9.18-8.75 14.48-12.85 1.06 1.01 1.94 1.77 2.03 2.62 0.78 7.18 1.25 14.4 2.23 21.55 0.22 1.68 2.01 3.14 3.08 4.71-3.78 4.83-7.56 9.67-11.6 14.69z"/>
	<path class="s17" d="m223.43 320.93c-5.47-8.11-10.22-16.34-15.61-24.13-6.64-9.6-14.02-18.69-20.67-28.29-3.83-5.52-6.85-11.6-10.26-17.86 2.36-1.31 4.76-2.18 7.52-3.04 0.6 1.85 0.24 4.08 1.16 5.45 12.78 18.95 25.8 37.74 38.59 56.68 2.27 3.36 3.8 7.24 5.81 11.25-1.94 0.25-4.02 0.13-6.54-0.06z"/>
	<path class="s21" d="m236.01 228c-3.42-1.04-6.84-2.1-10.27-3.11-5.62-1.65-11.26-3.26-17.33-5.27-0.26-3.21-1.43-4.3-4.22-3.29-3.47 0.08-6.94 0.16-11.06 0.03-0.93-0.31-1.22-0.29-1.49-0.18-4.46-1.54-5.42-4.79-2.09-7.86 3.02-2.79 6.32-5.26 9.9-7.61 1.45 1.43 2.27 3.13 3.59 3.71 10.6 4.64 21.29 9.08 31.96 14.02 0.34 3.48 0.67 6.52 1.01 9.56z"/>
	<path class="s12" d="m225.46 277.07c-2.43-1.85-4.77-3.44-6.37-5.58-5.51-7.39-10.54-15.15-16.25-22.38-1.47-1.86-4.75-2.29-7.48-3.6 8.1 0.31 16.47 0.84 25.07 1.82 0.22 1.87-0.31 3.59 0.31 4.63 3.78 6.39 7.95 12.54 11.71 18.94 1.93 3.26 4.34 4.39 8.1 4.23 2.45-0.1 4.96 1.1 7.44 1.72-7.37 0.08-14.73 0.16-22.53 0.22z"/>
	<path class="s21" d="m108.51 88.99c4 6.26 7.65 12.7 11.56 18.98 0.99 1.59 2.81 2.66 4.59 4-2.14 7.21-4.62 14.37-7.53 21.48-1.56-1.69-2.94-3.19-3.78-4.95-3.27-6.86-6.27-13.85-9.64-20.66-0.62-1.25-2.44-1.91-3.71-3.23-0.02-1.16-0.04-1.93-0.06-2.7 0 0 0.04 0.07 0.26-0.08 0.41-0.71 0.61-1.27 0.8-1.82 0 0 0-0.01 0.35-0.07 0.77-1.05 1.18-2.04 1.6-3.02 0 0 0.04 0.06 0.26-0.11 0.39-0.55 0.55-0.93 0.71-1.32 0.18-0.44 0.37-0.88 1.14-1.47 1.02-1.15 1.45-2.16 1.88-3.17 0.44-0.58 0.88-1.17 1.57-1.86z"/>
	<path class="s22" d="m290.19 105.18c-1.05-1.52-2.84-2.98-3.06-4.66-0.98-7.15-1.45-14.37-2.23-21.55-0.09-0.85-0.97-1.61-1.71-2.73 4.49-3.3 9.22-6.27 14.61-9.03 1.52 5.73 2.01 11.32 3.37 16.68 0.68 2.67 2.96 4.94 4.52 7.38-4.58 4.17-9.15 8.33-14.3 12.72-0.83 0.54-1.08 0.85-1.33 1.15 0 0 0.11-0.01 0.13 0.04z"/>
	<path class="s23" d="m305.98 91.18c-1.85-2.35-4.13-4.62-4.81-7.29-1.36-5.36-1.85-10.95-3.02-16.74 5.78-2.67 11.89-5.06 18.41-7.03 1.76 7.59 3.11 14.76 4.46 21.93-4.91 3.02-9.83 6.03-15.04 9.13z"/>
	<path class="s6" d="m205.97 194.94c3.44-2.95 6.88-5.91 10.78-8.66 4.93 3.14 9.09 6.79 13.94 8.86 7.54 3.2 15.54 5.32 23.35 8.32-0.12 6.71-0.09 6.42-6.37 5.79-3.49-0.35-7.09 0.47-10.93 0.56-5.15-2.41-10.05-4.53-14.86-6.85-5.35-2.58-10.61-5.34-15.91-8.02z"/>
	<path class="s24" d="m136.3 94.86c-2.92-4.75-5.47-9.68-8.19-14.53-1.03-1.82-2.44-3.43-3.99-5.29 6.08-3.82 12.49-7.48 19.57-10.95 2.88 5.78 5.1 11.36 7.32 16.95-4.8 4.55-9.61 9.11-14.71 13.82z"/>
	<path class="s13" d="m190 67.98q1.21 13.29 2.42 26.58-0.67 0.22-1.35 0.43c1.24 0.6 2.48 1.2 3.95 2.14-4.24 0.49-8.71 0.63-13.73 0.54-0.76-0.46-1.01-0.6-1.31-0.66-1.06 0-2.12-0.01-3.58-0.46-0.74-8.84-1.07-17.21-1.15-25.87 4.76-1.11 9.27-1.94 14.02-2.75 0.24 0.02 0.73 0.05 0.73 0.05z"/>
	<path class="s23" d="m403 245c-3.46 7.23-6.91 14.46-10.83 21.55-4.66-3.61-8.86-7.07-13.06-10.54 4.58-8.76 9.16-17.52 14.14-26.38 3.51 5.06 6.63 10.21 9.75 15.37z"/>
	<path class="s25" d="m272.32 317.84c-3.37-4.48-6.59-8.86-9.34-13.5-2.58-4.34-4.67-8.98-6.98-13.85 5.42-1.19 10.84-2 16.55-2.47 0.9 2.92 0.92 5.87 2.25 8.01 3.41 5.46 7.4 10.57 11.15 15.82-4.42 2-8.84 3.99-13.63 5.99z"/>
	<path class="s8" d="m248.44 276.92c-2.93-0.69-5.44-1.89-7.89-1.79-3.76 0.16-6.17-0.97-8.1-4.23-3.76-6.4-7.93-12.55-11.71-18.94-0.62-1.04-0.09-2.76 0.06-4.49 5.94 1.28 11.72 2.87 18.01 4.8 0.82 0.47 1.13 0.61 1.43 0.75 0 0 0.11 0.2-0.02 0.74 1.84 5.1 3.72 9.7 5.8 14.19 2.29 4.95 5.56 8.42 11.76 7.12 0.96-0.2 2.12 0.53 3.18 0.83-4.03 0.36-8.05 0.73-12.52 1.02z"/>
	<path class="s26" d="m336.62 84.9c0.05 2.09-0.59 4.2-0.55 6.3 0.08 4.95 3.12 7.46 7.98 7.89 3.53 0.32 6.99 1.5 10.7 2.58-20.52-4.43-39.52 0.64-58.16 10.5-0.5-0.09-0.8-0.37-0.8-0.37 10.83-12.94 24.16-22.13 40.83-26.9z"/>
	<path class="s27" d="m403.28 244.77c-3.4-4.93-6.52-10.08-9.88-15.46 2.67-8.33 5.58-16.44 8.63-24.89 4.31 1.58 8.5 4.07 8.48 9.1-0.01 5.5-0.91 11.08-2.13 16.47-1.12 4.96-3.18 9.71-5.1 14.78z"/>
	<path class="s22" d="m378.88 256.27c4.43 3.21 8.63 6.67 12.99 10.44-3.98 6.88-8.1 13.45-12.68 19.87-2.98-2.43-5.44-4.79-8.04-6.96-1.63-1.36-3.48-2.45-5.24-3.67 4.25-6.47 8.5-12.94 12.97-19.68z"/>
	<path class="s0" d="m330.87 256.48c5.76-5.28 12.46-8.14 20.34-7.49 2.06 0.17 4.25 0.87 6.02 1.93 2.91 1.74 3.74 4.02 0.69 6.71-5.33 4.72-10.53 9.58-16.46 14.33-3.98-5.2-7.28-10.34-10.59-15.48z"/>
	<path class="s28" d="m291.28 377.94c2.29-2.77 4.94-5.52 8.1-8.63 3.88-3.33 7.25-6.31 10.93-9.43 5.87-5.34 11.43-10.56 17.3-15.83 4.73-4.37 9.15-8.68 13.84-13.15 3.71-3.4 7.13-6.63 10.56-9.87 1.44 1.64 2.89 3.28 4.7 4.98-19.75 19.49-41.96 36.29-65.43 51.93z"/>
	<path class="s29" d="m294.02 249.96c-5.89-7.13-14.16-4.5-21.78-4.88 0-5.76 0-11.14 0.38-16.51 0.37 0.01 0.39 0.44 0.38 0.88 0.09 2.36 0.17 4.28 0.23 5.58 5.03 1.4 9.27 2.77 13.6 3.76 10.93 2.5 21.89 4.83 32.83 7.23-0.25 3.31 2.03 7.14-2.49 9.49-7.51-2.28-14.48-4.4-21.49-6.41-0.43-0.12-1.1 0.55-1.66 0.86z"/>
	<path class="s30" d="m365.63 276.13c2.04 1.04 3.89 2.13 5.52 3.49 2.6 2.17 5.06 4.53 7.74 7.12-3.64 5.53-7.43 10.76-11.81 15.95-5.37-2.92-10.16-5.8-14.96-8.68 4.41-5.9 8.82-11.8 13.51-17.88z"/>
	<path class="s14" d="m327.3 344.11c-5.56 5.21-11.12 10.43-16.99 15.4-1.78-6.7-6.25-9.96-12.31-11.84 0.03-0.54 0.05-0.75 0.07-0.96 5.42-4.86 10.84-9.71 16.7-14.39 4.47 4.05 8.5 7.92 12.53 11.79z"/>
	<path class="s8" d="m351.94 294.3c4.98 2.59 9.77 5.47 14.84 8.54-4.19 5.44-8.66 10.68-13.58 15.78-0.94-0.6-1.42-1.05-1.92-1.48q-5.71-4.82-11.42-9.63c3.96-4.31 7.93-8.62 12.08-13.21z"/>
	<path class="s30" d="m261.34 275.95c-1.44-0.35-2.6-1.08-3.56-0.88-6.2 1.3-9.47-2.17-11.76-7.12-2.08-4.49-3.96-9.09-5.86-14.1 2.74-0.29 5.42-0.13 8.56 0.28 0.72 0.17 1 0.1 1.27 0.03 5.37 0.15 10.73 0.3 16.33 0.84-2.91 0.79-6.04 1.18-9.86 1.65 3.79 6.57 7.15 12.4 10.51 18.22-1.75 0.38-3.49 0.76-5.63 1.08z"/>
	<path class="s20" d="m286.3 311.8c-4.1-5.2-8.09-10.31-11.5-15.77-1.33-2.14-1.35-5.09-1.82-8.04 3.36-1.31 6.59-2.27 10.52-3.04 3.97 4.91 7.26 9.62 10.47 14.38 1.43 2.13 2.69 4.38 4.02 6.57-3.78 1.95-7.56 3.91-11.69 5.9z"/>
	<path class="s11" d="m254.03 203.04c-7.8-2.58-15.8-4.7-23.34-7.9-4.85-2.07-9.01-5.72-13.63-8.99 2.21-2.31 4.56-4.28 7.37-5.96 1.05 1.07 1.48 2.24 2.25 2.56 9.42 3.83 18.88 7.53 28.33 11.27-0.01 0.2-0.02 0.39-0.36 1.17-0.43 3-0.53 5.43-0.62 7.85z"/>
	<path class="s31" d="m319.76 245.59c-11.04-1.97-22-4.3-32.93-6.8-4.33-0.99-8.57-2.36-13.6-3.76-0.06-1.3-0.14-3.22 0.21-5.58 3.13-0.73 5.82-1.02 8.51-1.3 0.47-0.04 0.93-0.07 1.96 0.2 1.72 1.24 2.75 2.67 4.06 3 10.53 2.67 21.12 5.14 31.69 7.67 0.07 2.05 0.13 4.09 0.1 6.57z"/>
	<path class="s17" d="m205.66 195.06c5.61 2.56 10.87 5.32 16.22 7.9 4.81 2.32 9.71 4.44 14.86 7.12 0.3 0.63 0.31 0.81 0.31 0.98 0 0-0.04-0.05-0.34 0.15-0.76 2.4-1.24 4.59-1.71 6.79-10.67-4.5-21.36-8.94-31.96-13.58-1.32-0.58-2.14-2.28-3.27-3.87 1.81-2.07 3.7-3.73 5.89-5.49z"/>
	<path class="s27" d="m321.39 82.01c-1.72-7.13-3.07-14.3-4.44-21.95 4.39-1.4 8.79-2.32 13.64-3.23-0.14 7.15 4.07 12.58 7.21 18.76-5.24 2.33-10.65 4.35-16.41 6.42z"/>
	<path class="s9" d="m327.61 344.05c-4.34-3.81-8.37-7.68-12.53-11.87 3.6-3.88 7.33-7.45 11.75-11.11 2.2 0.75 3.84 1.46 5.21 2.52 3.11 2.4 6.1 4.97 9.13 7.47-4.41 4.31-8.83 8.62-13.56 12.99z"/>
	<path class="s22" d="m298.33 305.84c-1.67-2.13-2.93-4.38-4.36-6.51-3.21-4.76-6.5-9.47-10.1-14.4 4.25-2.13 8.82-4.05 13.77-5.66 1.15 2.1 1.79 3.95 2.72 5.64 2.8 5 5.71 9.94 8.58 14.9-3.42 1.99-6.84 3.97-10.61 6.03z"/>
	<path class="s25" d="m255.28 193.82c-9.72-3.54-19.18-7.24-28.6-11.07-0.77-0.32-1.2-1.49-1.92-2.62-0.13-0.37-0.04-0.34 0.27-0.38 0.49-0.34 0.67-0.65 0.86-0.95 0 0 0.05 0.1 0.27-0.01 0.4-0.46 0.57-0.82 0.75-1.17 1.79-1.59 3.57-3.17 5.72-4.51 3.2 2.37 5.76 5.15 8.93 6.46 6.98 2.87 14.26 5 21.41 7.44 0.03 1.41 0.05 2.83 0.08 4.67-2.5 0.93-5 1.44-7.77 2.14z"/>
	<path class="s30" d="m189.03 67.9c-4.51 0.84-9.02 1.67-14.16 2.8-3.05 0.95-5.46 1.62-7.87 1.9-2-5.06-3.98-9.72-5.96-14.39 8.02-0.76 16.04-1.52 24.67-1.89 1.51 4.12 2.41 7.85 3.32 11.58z"/>
	<path class="s27" d="m330.64 256.59c3.54 5.03 6.84 10.17 10.51 15.46-3.62 3.95-7.61 7.75-12.05 11.39-4.06-5.96-7.65-11.74-11.24-17.53 3.41-2.64 6.83-5.28 10.85-8.02 0.83-0.37 1.06-0.64 1.29-0.9 0.14-0.1 0.28-0.2 0.64-0.4z"/>
	<path class="s8" d="m160.65 58.2c2.37 4.68 4.35 9.34 6.03 14.55-3.09 2.11-5.89 3.68-8.68 5.25-2.1 0.98-4.19 1.96-6.64 2.99-2.57-5.54-4.79-11.12-7.31-16.93 5.2-2.12 10.71-3.99 16.6-5.86z"/>
	<path class="s29" d="m309.26 299.72c-3.19-4.87-6.1-9.81-8.9-14.81-0.93-1.69-1.57-3.54-2.35-5.7 3.1-2.34 6.2-4.28 9.65-5.93 4.65 6.05 8.95 11.81 13.25 17.56-3.78 2.93-7.55 5.86-11.65 8.88z"/>
	<path class="s12" d="m341.45 330.9c-3.31-2.34-6.3-4.91-9.41-7.31-1.37-1.06-3.01-1.77-4.91-2.67 3.79-4.36 7.96-8.69 12.43-13.22 4.11 3.02 7.92 6.22 11.72 9.44 0.5 0.43 0.98 0.88 1.62 1.64-0.12 0.78-0.4 1.26-0.79 1.99-3.53 3.5-6.95 6.73-10.66 10.13z"/>
	<path class="s32" d="m297.99 347.99c6.07 1.56 10.54 4.82 12.01 11.65-3.37 3.36-6.74 6.34-10.44 9.38-0.81 0.03-1.51 0.19-1.77-0.07-3.66-3.76-7.26-7.57-10.93-11.75-0.07-0.38 0-0.34 0.24-0.4 0.43-0.36 0.64-0.66 0.84-0.95 0 0 0.01 0.1 0.22 0 0.4-0.4 0.6-0.7 0.8-0.99 0.03-0.35 0.2-0.6 0.97-0.93 0.66-0.42 0.86-0.68 1.06-0.94 0 0 0.01 0.01 0.32-0.03 0.69-0.47 1.06-0.91 1.43-1.35 0 0 0.08 0.14 0.3 0.1 0.39-0.37 0.56-0.7 0.73-1.04 0 0 0.06 0.14 0.28 0.08 0.4-0.39 0.58-0.72 0.76-1.05 0 0 0.05 0.14 0.26 0.07 0.41-0.39 0.6-0.71 0.79-1.03 0 0 0.03 0.14 0.24 0.06 0.4-0.39 0.6-0.7 0.8-1.01 0 0-0.02 0.1 0.24 0.12 0.46 0.04 0.66 0.06 0.85 0.08z"/>
	<path class="s20" d="m262.99 186.56c-7.17-1.99-14.45-4.12-21.43-6.99-3.17-1.31-5.73-4.09-8.62-6.59 1.66-1.9 3.38-3.41 5.7-5.08 0.87-0.46 1.13-0.78 1.39-1.1 0 0 0.25-0.42 0.55-0.09 6.31 6.72 14.35 9.02 22.4 11.3 0.01 2.7 0.02 5.4 0.01 8.55z"/>
	<path class="s27" d="m319.76 238.61c-10.67-2.12-21.26-4.59-31.79-7.26-1.31-0.33-2.34-1.76-3.72-2.94 2.13-0.83 5.53 0.54 5.98-4.01 9.46 1.61 18.81 3.6 28.61 5.57 0.64 2.74 0.83 5.49 0.92 8.64z"/>
	<path class="s20" d="m267.35 274.89c-3.74-5.84-7.1-11.67-10.89-18.24 3.82-0.47 6.95-0.86 10.32-1.61 1.34-0.55 2.45-0.75 4.06-0.57 1.97 3.26 3.59 6.09 4.85 9.08 0.99 2.35 1.55 4.88 2.3 7.33-3.42 1.34-6.84 2.68-10.64 4.01z"/>
	<path class="s22" d="m189.27 67.93c-1.15-3.76-2.05-7.49-3.11-11.54 7.93 0.95 16.01 2.21 24.66 3.82 1.14 0.45 1.72 0.56 2.29 0.68 0 0-0.08-0.03-0.08 0.38 0.33 2.53 0.64 4.65 0.96 6.77-1.39-0.01-2.78-0.02-4.58-0.02-6.44-0.01-12.45-0.03-18.94-0.05-0.47 0.01-0.96-0.02-1.2-0.04z"/>
	<path class="s31" d="m321.22 290.73c-4.61-5.64-8.91-11.4-13.21-17.53 3.07-2.6 6.14-4.83 9.53-7.17 3.91 5.67 7.5 11.45 11.25 17.52-2.32 2.55-4.79 4.81-7.57 7.18z"/>
	<path class="s29" d="m262.99 177.55c-8.06-1.82-16.1-4.12-22.18-10.94 2.73-2.88 5.55-5.34 8.84-7.55 4.77 2.81 9.06 5.38 13.34 7.94 0.01 3.37 0.01 6.73 0 10.55z"/>
	<path class="s29" d="m278.32 270.82c-1.08-2.39-1.64-4.92-2.63-7.27-1.26-2.99-2.88-5.82-4.5-9.04 3.29-0.73 6.74-1.4 10.2-1.52 6.11-0.21 8.82 3.64 5.75 8.98-1.97 3.42-5.61 5.88-8.82 8.85z"/>
	<path class="s23" d="m214.33 68.18c-0.66-2.26-0.97-4.38-1.25-6.92 11.91 2.42 21.91 8.84 31.48 16.07 2.11 1.59 4.06 3.4 6.21 5.42-1.25-0.03-2.62-0.36-4.34-0.74-6.11-3.04-11.87-6.04-18.01-9.06-4.84-1.55-9.3-3.09-14.09-4.77z"/>
	<path class="s33" d="m88.65 220.29c-8.08-20.68-11.08-42.07-8.74-64.28 2.48 16.1 6.58 31.62 14.2 46.46-0.02 0.44-0.19 0.58-0.44 0.35-7.44-11.76-10.63-24.69-13.59-37.8 0.15 7.75 0.22 15.54 1.6 23.09 1.96 10.71 4.88 21.24 7.28 31.93-0.1 0.08-0.31 0.25-0.31 0.25z"/>
	<path class="s22" d="m294.07 250.19c0.51-0.54 1.18-1.21 1.61-1.09 7.01 2.01 13.98 4.13 21.13 6.53-1.56 1.63-3.29 2.96-5.66 4.37-1.12 0.44-1.59 0.82-2.06 1.2 0 0 0-0.12-0.41-0.13-4.85 0.07-8.99-0.79-12.31-4.05-0.09-0.45-0.18-0.91-0.1-1.82 0.04-0.7-0.1-0.94-0.24-1.19 0 0-0.16-0.34-0.14-0.88-0.35-1.05-0.72-1.57-1.1-2.09-0.33-0.09-0.55-0.3-0.72-0.85z"/>
	<path class="s31" d="m263 166.54c-4.29-2.1-8.58-4.67-13.02-7.59 3.33-3.24 6.8-6.13 10.6-9.16 1.02 5.34 1.72 10.81 2.42 16.75z"/>
	<path class="s33" d="m240.99 229.01c-0.85-0.14-1.69-0.28-2.74-0.66 5.23-0.25 10.67-0.25 16.42-0.25 0 6 0 11.74 0 18.07-12.79-0.17-24.43-6.12-37.25-8.49-0.39-0.3-0.42-0.68-0.42-0.68 7.05 1.64 14.1 3.29 21.15 4.91 4.63 1.05 9.28 2.05 14.86 3.28 0-4.15 0-7.71-0.01-12.15-1.06-1.94-2-3.71-3.19-3.9-2.88-0.44-5.88-0.14-8.82-0.13z"/>
	<path class="s20" d="m296.28 257.44c3.41 2.84 7.55 3.7 12.44 3.67q-8.03 5.6-17.31 11c-0.39-0.09-0.43-0.13-0.43-0.13 1.74-4.71 3.48-9.42 5.3-14.54z"/>
	<path class="s24" d="m216.63 236.86c0.37 0.14 0.4 0.52 0.41 0.71-3.24-0.12-6.49-0.43-10.39-0.8 0-5.24 0.13-10.29-0.07-15.32-0.07-1.58-1.02-3.12-1.98-4.9 2.38-1.23 3.55-0.14 3.39 3.07-0.01 3.82 0.19 7.28-0.08 10.7-0.33 4.18 1.07 6.25 5.5 5.79 0.92-0.09 1.9 0.39 3.22 0.75z"/>
	<path class="s33" d="m237.52 211.08c-0.47-0.19-0.48-0.37-0.49-0.8 3.55-0.56 7.15-1.38 10.64-1.03 6.28 0.63 6.25 0.92 6.37-5.79 0.08-2.84 0.18-5.27 0.49-8 0.21 4.66 0.21 9.64 0.21 15.64-5.62 0-11.19 0-17.22-0.02z"/>
	<path class="s33" d="m90.96 221.03q3.61 8.86 7.22 17.72c0.61 1.51 1.21 3.03 1.79 4.93-3.74-7.29-7.47-14.97-11.26-23.02-0.06-0.37 0.15-0.54 0.49-0.49 0.81 0.32 1.29 0.59 1.76 0.86z"/>
	<path class="s33" d="m235 218.44c0.47-2.64 0.95-4.83 1.75-7.22 0.3 5.13 0.27 10.44 0.42 16.2-0.05 0.46-0.27 0.5-0.83 0.55-0.67-3.01-1-6.05-1.34-9.53z"/>
	<path class="s4" d="m141.07 241.37c0.87-1.11 1.91-1.93 3.01-3.13 1.65 2.12 3.26 4.62 5.69 8.43-3.62-2.14-6.07-3.58-8.7-5.3z"/>
	<path class="s33" d="m105.73 253.56c1.04 1.04 2.14 2.41 3.24 4.14-1.07-1.03-2.12-2.42-3.24-4.14z"/>
	<path class="s4" d="m99.67 102.11c0.29 0.57 0.31 1.34 0.07 2.67-1.06 1.46-1.87 2.36-2.67 3.26 0 0-0.09-0.07-0.14-0.1 0.79-1.9 1.63-3.76 2.74-5.83z"/>
	<path class="s27" d="m281.51 228.08c-2.25 0.35-4.94 0.64-8.07 0.93-0.43 0-0.45-0.43-0.45-0.64 2.69-0.26 5.38-0.32 8.52-0.29z"/>
	<path class="s26" d="m343.6 83.02q-2.2 0.98-5.59 1.89 2.2-0.98 5.59-1.89z"/>
	<path class="s4" d="m131.34 217.41c-0.7-0.76-1.46-1.84-2.11-3.3 0.75 0.74 1.4 1.86 2.11 3.3z"/>
	<path class="s33" d="m144.13 293.3c1.06 0.29 2.28 0.85 3.5 1.79-1.12-0.26-2.22-0.89-3.5-1.79z"/>
	<path class="s4" d="m102.69 201.57c0.72 0.71 1.5 1.75 2.26 3.16-0.74-0.7-1.47-1.77-2.26-3.16z"/>
	<path class="s33" d="m100.71 245.57c0.71 0.71 1.49 1.74 2.25 3.15-0.75-0.7-1.47-1.77-2.25-3.15z"/>
	<path class="s33" d="m132.83 284.5c0.94 0.43 2.01 1.15 3.11 2.21-0.97-0.41-1.98-1.16-3.11-2.21z"/>
	<path class="s33" d="m97.12 207.89c0.7 1.01 1.4 2.03 2.09 3.46-0.01 0.42-0.23 0.66-0.52 0.5-0.81-1.36-1.32-2.56-1.76-3.8 0.06-0.05 0.19-0.16 0.19-0.16z"/>
	<path class="s4" d="m102.68 97.08c-0.15 0.82-0.56 1.81-1.33 2.86 0.12-0.86 0.6-1.77 1.33-2.86z"/>
	<path class="s4" d="m138.04 239.36c0.84 0.16 1.84 0.59 2.86 1.39-0.88-0.13-1.8-0.62-2.86-1.39z"/>
	<path class="s4" d="m135.06 237.34c0.84 0.17 1.83 0.61 2.84 1.42-0.88-0.14-1.78-0.64-2.84-1.42z"/>
	<path class="s4" d="m142.01 234.65c-0.63-0.44-1.32-1.19-2.01-2.29 0.65 0.42 1.3 1.21 2.01 2.29z"/>
	<path class="s33" d="m147.82 295.74c0.82 0.14 1.83 0.53 2.86 1.29-0.87-0.1-1.78-0.57-2.86-1.29z"/>
	<path class="s4" d="m133.07 220.62c-0.62-0.5-1.28-1.33-1.83-2.53 0.67 0.49 1.24 1.35 1.83 2.53z"/>
	<path class="s4" d="m106.66 91c-0.15 0.86-0.58 1.87-1.37 2.93 0.12-0.9 0.6-1.84 1.37-2.93z"/>
	<path class="s4" d="m106.95 208.38c0.63 0.44 1.33 1.19 2.02 2.31-0.66-0.43-1.31-1.22-2.02-2.31z"/>
	<path class="s4" d="m137.95 228.69c-0.61-0.47-1.27-1.25-1.92-2.4 0.64 0.46 1.25 1.28 1.92 2.4z"/>
	<path class="s4" d="m104.95 205.37c0.64 0.46 1.33 1.23 1.99 2.37-0.66-0.44-1.3-1.25-1.99-2.37z"/>
	<path class="s33" d="m101.31 214.2c-0.13 0.39-0.35 0.5-1.05 0.4-0.75-0.99-1.01-1.79-1.28-2.59 0 0 0.22-0.24 0.33-0.36 0.71 0.67 1.31 1.47 2 2.55z"/>
	<path class="s33" d="m103.74 250.52c0.66 0.48 1.38 1.27 2.03 2.42-0.7-0.47-1.33-1.29-2.03-2.42z"/>
	<path class="s33" d="m94.18 202.83c0.74 1 1.4 2.07 2.03 3.57-0.02 0.41-0.23 0.62-0.49 0.42-0.77-1.39-1.28-2.58-1.8-3.77 0 0 0.17-0.14 0.26-0.22z"/>
	<path class="s17" d="m188.97 247.6c-1.08 0.37-2.19 0.35-3.71 0.25 0.67-0.51 1.76-0.95 3.21-1.43 0.4 0.24 0.43 0.51 0.5 1.18z"/>
	<path class="s33" d="m111.61 261.76c0.63 0.42 1.37 1.14 2.13 2.21-0.66-0.41-1.34-1.16-2.13-2.21z"/>
	<path class="s4" d="m132.79 235.65c0.6 0.07 1.35 0.4 2.12 1.09-0.64-0.04-1.31-0.44-2.12-1.09z"/>
	<path class="s33" d="m115.95 267.36q0.82 0.34 1.81 1.61-0.82-0.34-1.81-1.61z"/>
	<path class="s33" d="m128.05 280.29c0.44 0 1 0.27 1.52 0.86-0.49 0.02-0.95-0.29-1.52-0.86z"/>
	<path class="s4" d="m100.87 198.36q0.51 0.24 1.08 1.4-0.52-0.24-1.08-1.4z"/>
	<path class="s26" d="m356.87 102.35q0.64-0.17 1.93 0.42-0.64 0.17-1.93-0.42z"/>
	<path class="s13" d="m156.61 257.12c-0.15 0.32-0.64 0.54-1.4 0.63-0.26-0.12-0.23-0.29-0.23-0.29 0.43-0.15 0.86-0.3 1.63-0.34z"/>
	<path class="s5" d="m428.18 100.84c0.28 0.43 0.42 0.97 0.56 1.52-0.28-0.21-0.56-0.42-0.89-0.9-0.06-0.27 0.2-0.51 0.33-0.62z"/>
	<path class="s20" d="m294.86 251.36c0.31 0.2 0.68 0.72 1.05 1.58-0.33-0.19-0.66-0.73-1.05-1.58z"/>
	<path class="s4" d="m100.76 100.18q0.08 0.58-0.6 1.64-0.08-0.58 0.6-1.64z"/>
	<path class="s4" d="m98.83 194.38q0.53 0.25 1.06 1.44-0.52-0.24-1.06-1.44z"/>
	<path class="s4" d="m99.85 196.38q0.52 0.24 1.06 1.44-0.53-0.25-1.06-1.44z"/>
	<path class="s33" d="m136.08 287.29c0.43-0.02 1 0.22 1.6 0.78-0.46 0.05-0.97-0.23-1.6-0.78z"/>
	<path class="s4" d="m131.04 234.3c0.44-0.03 1.02 0.21 1.64 0.78-0.47 0.05-0.99-0.23-1.64-0.78z"/>
	<path class="s20" d="m309.4 261.18q0.23-0.54 1.42-1.12-0.23 0.54-1.42 1.12z"/>
	<path class="s4" d="m115.65 219.62c0.37 0.08 0.83 0.43 1.31 1.1-0.39-0.06-0.81-0.44-1.31-1.1z"/>
	<path class="s33" d="m114.62 265.69c0.37 0.07 0.83 0.42 1.29 1.09-0.4-0.05-0.8-0.44-1.29-1.09z"/>
	<path class="s12" d="m255.85 132.38c0.47-0.06 1.14 0.15 1.94 0.7-0.49 0.08-1.11-0.17-1.94-0.7z"/>
	<path class="s23" d="m212.93 60.65q-0.59 0.19-1.73-0.35 0.59-0.19 1.73 0.35z"/>
	<path class="s4" d="m144.12 237.64q-0.37 0.09-0.85-0.67 0.37-0.08 0.85 0.67z"/>
	<path class="s34" d="m95.72 206.82c0.36 0.5 0.54 0.77 0.96 1.13 0.69 1.34 1.2 2.54 2.01 3.9 0.56 0.96 0.82 1.76 1.21 2.84-1.5 1.2-3.2 2.01-4.75 3.05-1.28 0.86-2.37 1.99-3.87 3.14-0.79-0.12-1.27-0.39-1.98-0.79-2.74-10.74-5.66-21.27-7.62-31.98-1.38-7.55-1.45-15.34-1.6-23.09 2.96 13.11 6.15 26.04 13.59 37.8 0.77 1.42 1.28 2.61 2.05 4z"/>
	<path class="s7" d="m97.04 108.44c0.83-1.3 1.64-2.2 2.7-3.27 1.53 0.76 3.35 1.42 3.97 2.67 3.37 6.81 6.37 13.8 9.64 20.66 0.84 1.76 2.22 3.26 3.5 5.19-0.67 8.45-1.5 16.6-2.32 24.74q-0.59 0.27-1.18 0.54c-1.26-2.3-2.5-4.61-3.8-6.89-2.02-3.56-4.45-6.95-6.04-10.69-1.85-4.36-2.84-9.07-4.48-13.52-0.89-2.42-2.72-4.52-3.46-6.96-0.6-1.99-0.44-4.3-0.18-6.42 0.24-1.92 1.06-3.77 1.65-6.05z"/>
	<path class="s35" d="m158.3 78.3c2.49-1.87 5.29-3.44 8.39-5.16 2.72-0.82 5.13-1.49 7.92-2.17 0.72 8.37 1.05 16.74 1.39 25.58-5.33 2.07-10.65 3.69-17.41 5.75 0-8.44 0-16.07-0.29-24z"/>
	<path class="s21" d="m241.05 229.37c2.88-0.37 5.88-0.67 8.76-0.23 1.19 0.19 2.13 1.96 3.19 3.43-3.96-0.66-7.92-1.75-11.95-3.2z"/>
</svg>